<svg xmlns="http://www.w3.org/2000/svg" viewBox="0 0 900 560" role="img" aria-labelledby="title desc">
  <title id="title">Portfolio Management Dashboard thumbnail</title>
  <desc id="desc">Investment portfolio dashboard with sidebar navigation, trailing returns table, and green equity curve chart.</desc>
  <defs>
    <linearGradient id="green" x1="0" y1="0" x2="1" y2="1">
      <stop offset="0%" stop-color="#22c55e"/>
      <stop offset="100%" stop-color="#0ea85a"/>
    </linearGradient>
    <filter id="shadow" x="-20%" y="-20%" width="140%" height="140%">
      <feDropShadow dx="0" dy="7" stdDeviation="8" flood-color="#0f172a" flood-opacity=".14"/>
    </filter>
  </defs>

  <rect width="900" height="560" fill="#f6f6f7"/>
  <rect x="0" y="0" width="152" height="560" fill="#ffffff"/>
  <line x1="152" y1="0" x2="152" y2="560" stroke="#e5e7eb"/>
  <line x1="0" y1="88" x2="152" y2="88" stroke="#e5e7eb"/>

  <g font-family="Arial, Helvetica, sans-serif">
    <circle cx="34" cy="36" r="18" fill="#10b981"/>
    <text x="34" y="42" fill="#ffffff" font-size="17" font-weight="900" text-anchor="middle">C</text>
    <text x="62" y="33" fill="#111827" font-size="18" font-weight="900">capitalmind</text>
    <text x="62" y="54" fill="#00a66a" font-size="13">premium</text>

    <text x="28" y="114" fill="#25314a" font-size="16">Home</text>
    <rect x="0" y="136" width="152" height="43" fill="#f0f0f1"/>
    <text x="28" y="163" fill="#111827" font-size="16">Portfolios</text>
    <text x="28" y="210" fill="#25314a" font-size="16">Experimentals</text>
    <text x="28" y="256" fill="#25314a" font-size="16">Slack Archives</text>
    <text x="28" y="302" fill="#25314a" font-size="16">Refer a friend</text>
    <text x="28" y="348" fill="#25314a" font-size="16">Account</text>

    <line x1="0" y1="498" x2="152" y2="498" stroke="#e5e7eb"/>
    <circle cx="34" cy="526" r="17" fill="#10b981"/>
    <text x="34" y="532" fill="#ffffff" font-size="13" font-weight="900" text-anchor="middle">RN</text>
    <text x="62" y="522" fill="#111827" font-size="13">RN</text>
    <text x="62" y="540" fill="#64748b" font-size="12">CMP1Y</text>

    <text x="210" y="70" fill="#202124" font-size="32" font-weight="900">Portfolios</text>

    <rect x="210" y="112" width="640" height="128" rx="10" fill="#ffffff" stroke="#dfe3e8" filter="url(#shadow)"/>
    <text x="230" y="145" fill="#1f2937" font-size="18">Trailing Returns</text>
    <text x="230" y="185" fill="#667085" font-size="13" font-weight="900">NAME</text>
    <text x="302" y="185" fill="#667085" font-size="13" font-weight="900">YTD</text>
    <text x="366" y="185" fill="#667085" font-size="13" font-weight="900">1D</text>
    <text x="432" y="185" fill="#667085" font-size="13" font-weight="900">1W</text>
    <text x="500" y="185" fill="#667085" font-size="13" font-weight="900">1M</text>
    <text x="568" y="185" fill="#667085" font-size="13" font-weight="900">3M</text>
    <text x="640" y="185" fill="#667085" font-size="13" font-weight="900">1Y</text>
    <text x="716" y="185" fill="#667085" font-size="13" font-weight="900">SI</text>
    <line x1="230" y1="200" x2="832" y2="200" stroke="#d7dce2"/>
    <text x="230" y="226" fill="#111827" font-size="17">Focused</text>
    <text x="302" y="226" fill="#111827" font-size="17">14.4%</text>
    <text x="366" y="226" fill="#111827" font-size="17">0.9%</text>
    <text x="432" y="226" fill="#111827" font-size="17">2.2%</text>
    <text x="500" y="226" fill="#111827" font-size="17">8.1%</text>
    <text x="568" y="226" fill="#111827" font-size="17">11.7%</text>
    <text x="640" y="226" fill="#111827" font-size="17">-</text>
    <text x="716" y="226" fill="#111827" font-size="17">17.4%</text>
    <line x1="230" y1="236" x2="832" y2="236" stroke="#111827"/>
    <text x="230" y="264" fill="#111827" font-size="17">NIFTY50</text>
    <text x="302" y="264" fill="#111827" font-size="17">3.1%</text>
    <text x="366" y="264" fill="#111827" font-size="17">0.1%</text>
    <text x="432" y="264" fill="#111827" font-size="17">1.1%</text>

    <rect x="210" y="268" width="640" height="250" rx="10" fill="#ffffff" stroke="#dfe3e8" filter="url(#shadow)"/>
    <text x="230" y="305" fill="#111827" font-size="18" font-weight="900">Equity curve</text>
    <text x="230" y="330" fill="#586174" font-size="13">Live since 2023-12-18  •  As of 2024-04-23</text>
    <rect x="648" y="292" width="76" height="32" rx="6" fill="#ffffff" stroke="#e5e7eb"/>
    <text x="665" y="313" fill="#243047" font-size="12">18-12-2023</text>
    <rect x="736" y="292" width="76" height="32" rx="6" fill="#ffffff" stroke="#e5e7eb"/>
    <text x="753" y="313" fill="#243047" font-size="12">23-04-2024</text>

    <g stroke="#e8edf2" stroke-width="2">
      <line x1="260" y1="474" x2="820" y2="474"/>
      <line x1="260" y1="430" x2="820" y2="430"/>
      <line x1="260" y1="386" x2="820" y2="386"/>
      <line x1="260" y1="342" x2="820" y2="342"/>
    </g>
    <g fill="#94a3b8" font-size="13">
      <text x="242" y="478">100</text>
      <text x="242" y="434">105</text>
      <text x="242" y="390">110</text>
      <text x="242" y="346">115</text>
    </g>
    <path d="M260 470 C285 458 294 460 318 448 S355 431 378 436 S405 419 428 398 S465 374 488 383 S514 338 536 366 S558 433 580 380 S612 360 632 394 S660 438 682 406 S715 401 736 385 S755 340 780 333 S802 372 820 353" fill="none" stroke="#22c55e" stroke-width="5" stroke-linecap="round" stroke-linejoin="round"/>
    <path d="M260 478 C290 466 322 456 350 448 S382 455 410 426 S452 395 480 405 S518 360 548 392 S586 405 616 394 S650 450 682 420 S724 418 750 392 S792 398 820 381" fill="none" stroke="#16a34a" stroke-width="4" stroke-linecap="round" stroke-linejoin="round"/>

    <rect x="672" y="470" width="138" height="32" rx="16" fill="#ecfdf5"/>
    <circle cx="692" cy="486" r="7" fill="url(#green)"/>
    <text x="708" y="491" fill="#166534" font-size="13" font-weight="900">Portfolio growth</text>
  </g>
</svg>
