<svg xmlns="http://www.w3.org/2000/svg" viewBox="0 0 900 560" role="img" aria-labelledby="title desc">
  <title id="title">WAR JETS P2P Multiplayer project thumbnail</title>
  <desc id="desc">Neon arcade space battle scene with glowing jets and multiplayer game HUD.</desc>
  <defs>
    <radialGradient id="spaceGlow" cx="50%" cy="46%" r="70%">
      <stop offset="0%" stop-color="#16284a"/>
      <stop offset="48%" stop-color="#071426"/>
      <stop offset="100%" stop-color="#020711"/>
    </radialGradient>
    <linearGradient id="cyanJet" x1="0" y1="0" x2="0" y2="1">
      <stop offset="0%" stop-color="#4cf4ff"/>
      <stop offset="52%" stop-color="#00a6ff"/>
      <stop offset="100%" stop-color="#0069ff"/>
    </linearGradient>
    <linearGradient id="magentaJet" x1="0" y1="0" x2="0" y2="1">
      <stop offset="0%" stop-color="#ff4df7"/>
      <stop offset="55%" stop-color="#bd00ff"/>
      <stop offset="100%" stop-color="#4e006c"/>
    </linearGradient>
    <filter id="cyanGlow" x="-80%" y="-80%" width="260%" height="260%">
      <feGaussianBlur stdDeviation="9" result="blur"/>
      <feMerge>
        <feMergeNode in="blur"/>
        <feMergeNode in="SourceGraphic"/>
      </feMerge>
    </filter>
    <filter id="magentaGlow" x="-80%" y="-80%" width="260%" height="260%">
      <feGaussianBlur stdDeviation="11" result="blur"/>
      <feMerge>
        <feMergeNode in="blur"/>
        <feMergeNode in="SourceGraphic"/>
      </feMerge>
    </filter>
    <filter id="textGlow" x="-30%" y="-60%" width="160%" height="220%">
      <feGaussianBlur stdDeviation="4" result="blur"/>
      <feMerge>
        <feMergeNode in="blur"/>
        <feMergeNode in="SourceGraphic"/>
      </feMerge>
    </filter>
  </defs>

  <rect width="900" height="560" fill="url(#spaceGlow)"/>
  <g opacity=".18" stroke="#14375e" stroke-width="1">
    <path d="M80 0v560M210 0v560M340 0v560M470 0v560M600 0v560M730 0v560M860 0v560"/>
    <path d="M0 70h900M0 150h900M0 230h900M0 310h900M0 390h900M0 470h900"/>
  </g>

  <g fill="#c7efff">
    <circle cx="72" cy="92" r="2.4" opacity=".7"/>
    <circle cx="168" cy="156" r="1.9" opacity=".55"/>
    <circle cx="264" cy="82" r="3" opacity=".75"/>
    <circle cx="365" cy="210" r="2.2" opacity=".45"/>
    <circle cx="511" cy="94" r="1.8" opacity=".6"/>
    <circle cx="632" cy="188" r="2.7" opacity=".5"/>
    <circle cx="782" cy="118" r="2.2" opacity=".7"/>
    <circle cx="836" cy="292" r="1.7" opacity=".5"/>
    <circle cx="124" cy="365" r="2.1" opacity=".55"/>
    <circle cx="282" cy="446" r="3.1" opacity=".78"/>
    <circle cx="496" cy="424" r="2.6" opacity=".66"/>
    <circle cx="705" cy="384" r="2" opacity=".5"/>
  </g>

  <g transform="translate(451 128)" filter="url(#magentaGlow)">
    <path d="M0-76c34 56 46 119 35 188H-35C-46 43-34-20 0-76Z" fill="url(#magentaJet)"/>
    <path d="M-35 8-138 67l22 46 87-34Z" fill="#72007e" opacity=".9"/>
    <path d="M35 8 138 67l-22 46-87-34Z" fill="#72007e" opacity=".9"/>
    <path d="M-16 111 0 168l16-57Z" fill="#ff55f5"/>
    <circle cx="0" cy="-36" r="15" fill="#4b005d"/>
    <circle cx="-64" cy="116" r="12" fill="#ff00f5"/>
    <circle cx="64" cy="116" r="12" fill="#ff00f5"/>
  </g>

  <g transform="translate(450 393)" filter="url(#cyanGlow)">
    <path d="M0-56c26 42 35 90 26 140h-52C-35 34-26-14 0-56Z" fill="url(#cyanJet)"/>
    <path d="M-26 10-101 52l16 34 64-25Z" fill="#0096c9" opacity=".92"/>
    <path d="M26 10 101 52 85 86 21 61Z" fill="#0096c9" opacity=".92"/>
    <path d="M-12 83 0 132l12-49Z" fill="#ff9d1f"/>
    <circle cx="0" cy="-18" r="12" fill="#012b54"/>
    <circle cx="0" cy="-18" r="5" fill="#62f7ff"/>
  </g>

  <g filter="url(#textGlow)" text-anchor="middle" font-family="Arial, Helvetica, sans-serif" font-weight="800">
    <text x="450" y="286" fill="#ff2df4" font-size="45" letter-spacing="3">WAR JETS</text>
    <text x="450" y="329" fill="#32edff" font-size="24" letter-spacing="5">P2P MULTIPLAYER</text>
  </g>

  <g font-family="Arial, Helvetica, sans-serif" font-weight="700" font-size="22">
    <text x="42" y="48" fill="#19dfff" filter="url(#cyanGlow)">harshad ★</text>
    <rect x="176" y="31" width="142" height="16" fill="#00ff5a" filter="url(#cyanGlow)"/>
    <text x="656" y="49" fill="#ff53f0" filter="url(#magentaGlow)">⚡ OVERLOAD</text>
  </g>
</svg>
